<?xml version="1.0" encoding="utf-8"?>
<!-- Generator: Adobe Illustrator 16.2.1, SVG Export Plug-In . SVG Version: 6.00 Build 0)  -->
<!DOCTYPE svg PUBLIC "-//W3C//DTD SVG 1.1//EN" "http://www.w3.org/Graphics/SVG/1.1/DTD/svg11.dtd">
<svg version="1.1" id="Layer_1" xmlns="http://www.w3.org/2000/svg" xmlns:xlink="http://www.w3.org/1999/xlink" x="0px" y="0px"
	 width="390px" height="151px" viewBox="0 0 390 151" enable-background="new 0 0 390 151" xml:space="preserve">
<g>
	<path fill="#00ADC6" d="M66.695,150.065C22.232,122.274,0,94.486,0,44.464V0h133.391v44.464
		C133.391,94.486,111.159,122.274,66.695,150.065z"/>
	<g>
		<path fill="#575756" d="M163.849,3.137v-1.51c1.65,0.063,3.231,0.094,4.74,0.094c1.524,0,2.988-0.031,4.386-0.094
			c1.384,3.143,2.65,5.898,3.799,8.271l8.943,18.397l8.047-16.884c2.206-4.579,3.676-7.84,4.417-9.785
			c1.667,0.063,3.074,0.094,4.221,0.094c1.053,0,2.76-0.031,5.118-0.094v1.51c-1.871,0.032-3.007,0.114-3.407,0.247
			c-0.401,0.134-0.681,0.318-0.837,0.554c-0.205,0.314-0.323,1.076-0.354,2.286c-0.016,0.314-0.055,2.544-0.118,6.692v10.909
			c0,2.136,0.039,4.218,0.118,6.243c0.047,1.493,0.16,2.38,0.341,2.663c0.179,0.283,0.469,0.492,0.867,0.625
			c0.399,0.134,1.529,0.216,3.391,0.248v1.509c-3.176-0.142-5.416-0.212-6.72-0.212c-1.053,0-3.381,0.071-6.98,0.212v-1.509
			c1.87-0.031,3.01-0.113,3.419-0.248c0.409-0.133,0.684-0.317,0.825-0.554c0.204-0.314,0.322-1.075,0.353-2.285
			c0.017-0.331,0.056-2.561,0.118-6.693V6.528L190.4,23.542c-1.274,2.655-2.272,4.792-2.995,6.409
			c-0.519,1.178-1.305,3.047-2.358,5.608h-0.92c-0.205-0.596-0.394-1.077-0.566-1.438l-1.604-3.417L170.687,7.306v16.517
			c0,2.136,0.032,4.218,0.095,6.244c0.047,1.493,0.161,2.38,0.342,2.663c0.18,0.283,0.471,0.492,0.872,0.625
			c0.401,0.134,1.536,0.216,3.407,0.248v1.509l-5.683-0.166l-5.871,0.166v-1.509c1.846-0.031,2.971-0.113,3.378-0.248
			c0.407-0.133,0.688-0.317,0.845-0.554c0.188-0.314,0.305-1.075,0.352-2.285c0.02-0.33,0.059-2.561,0.118-6.692V12.915
			c0-2.136-0.023-4.226-0.071-6.268c-0.047-1.492-0.161-2.376-0.342-2.65c-0.181-0.276-0.471-0.479-0.872-0.613
			C166.856,3.25,165.719,3.168,163.849,3.137z"/>
		<path fill="#575756" d="M211.827,18.959l-1.25-0.331c0.015-0.362,0.023-0.856,0.023-1.485c0-0.661-0.008-1.187-0.023-1.581
			c1.999-1.304,3.636-2.185,4.911-2.641c0.976-0.329,2.071-0.495,3.283-0.495c1.794,0,3.305,0.338,4.533,1.014
			c1.228,0.675,2.142,1.643,2.74,2.9c0.409,0.88,0.614,2.083,0.614,3.607l-0.118,4.315v7.027c0,0.755,0.063,1.297,0.189,1.628
			c0.094,0.235,0.244,0.408,0.448,0.519c0.157,0.094,0.488,0.157,0.99,0.188l1.534,0.142v1.344c-1.29-0.11-2.422-0.166-3.396-0.166
			c-0.943,0-2.202,0.055-3.773,0.166l0.118-4.15c-3.207,2.421-5.11,3.784-5.707,4.091c-0.597,0.307-1.351,0.46-2.263,0.46
			c-1.902,0-3.384-0.508-4.445-1.521c-1.061-1.014-1.591-2.362-1.591-4.044c0-1.085,0.184-2.075,0.553-2.971
			c0.369-0.896,0.813-1.607,1.333-2.134c0.518-0.526,1.044-0.916,1.579-1.167c0.912-0.424,2.393-0.88,4.445-1.367
			c2.05-0.488,4.083-0.849,6.095-1.085c0.015-1.493-0.166-2.657-0.543-3.49c-0.377-0.833-1.013-1.517-1.909-2.052
			c-0.896-0.534-1.989-0.801-3.278-0.801c-0.928,0-1.741,0.126-2.441,0.377c-0.699,0.252-1.127,0.463-1.285,0.637l-0.424,0.849
			C212.346,17.686,212.031,18.424,211.827,18.959z M222.65,22.661c-2.044,0.346-3.789,0.73-5.235,1.156
			c-1.447,0.424-2.469,0.864-3.066,1.32c-0.362,0.268-0.676,0.669-0.943,1.203c-0.408,0.786-0.613,1.659-0.613,2.617
			c0,1.164,0.322,2.072,0.967,2.724c0.645,0.652,1.541,0.979,2.688,0.979c1.052,0,2.094-0.303,3.125-0.908
			c1.029-0.605,2.055-1.513,3.077-2.724V22.661z"/>
		<path fill="#575756" d="M254.371,14.267l0.189,0.448c-0.614,0.928-1.015,1.564-1.204,1.91h-4.386
			c0.362,0.926,0.543,1.796,0.543,2.613c0,1.192-0.312,2.357-0.932,3.494c-0.623,1.137-1.53,2.11-2.724,2.917
			c-1.196,0.808-2.468,1.354-3.821,1.636c-0.88,0.188-2.068,0.267-3.561,0.235c-1.022,0.813-1.667,1.423-1.934,1.829
			c-0.173,0.282-0.259,0.586-0.259,0.915c0,0.375,0.114,0.708,0.342,0.998c0.228,0.289,0.578,0.492,1.049,0.606
			c0.708,0.198,1.966,0.296,3.773,0.296l5.093-0.117c1.777,0,3.125,0.232,4.044,0.696c0.92,0.464,1.599,1.173,2.04,2.125
			c0.44,0.953,0.661,2.028,0.661,3.225c0,1.621-0.531,3.27-1.592,4.946c-1.061,1.676-2.636,2.999-4.727,3.967
			c-2.091,0.968-4.433,1.453-7.027,1.453c-2.169,0-4.017-0.339-5.542-1.015c-1.525-0.675-2.653-1.58-3.384-2.712
			c-0.731-1.132-1.097-2.319-1.097-3.561c0-0.691,0.106-1.34,0.318-1.946c0.211-0.604,0.569-1.253,1.073-1.944
			c1.918-0.881,3.293-1.651,4.127-2.312c-1.305-0.424-2.142-0.825-2.512-1.202c-0.37-0.377-0.554-0.755-0.554-1.132
			c0-0.315,0.236-1.164,0.707-2.546c0.77-0.645,1.981-1.557,3.631-2.736c-1.414-0.393-2.504-0.851-3.266-1.377
			c-0.763-0.526-1.356-1.241-1.78-2.143c-0.424-0.903-0.637-1.895-0.637-2.979c0-1.601,0.409-3.033,1.226-4.296
			c0.817-1.264,2.193-2.292,4.127-3.084c1.933-0.793,3.726-1.189,5.377-1.189c1.068,0,2.085,0.173,3.053,0.52
			c0.966,0.345,1.882,0.865,2.747,1.556C250.511,14.345,252.784,14.314,254.371,14.267z M241.992,35.371
			c-2.342,0-3.813,0.031-4.41,0.094c-0.297,0.047-0.636,0.204-1.014,0.471c-1.241,0.88-1.901,1.368-1.979,1.462
			c-0.158,0.157-0.331,0.479-0.52,0.967c-0.33,0.88-0.495,1.769-0.495,2.665c0,1.65,0.64,3.045,1.921,4.185
			c1.281,1.141,3.045,1.709,5.294,1.709c1.666,0,3.188-0.333,4.562-1.001c1.376-0.669,2.414-1.581,3.114-2.735
			c0.699-1.156,1.05-2.316,1.05-3.479c-0.048-1.006-0.201-1.769-0.46-2.288c-0.26-0.518-0.574-0.927-0.943-1.226
			c-0.369-0.299-0.877-0.543-1.521-0.731C246.212,35.418,244.68,35.386,241.992,35.371z M235.083,19.561
			c0,1.114,0.209,2.197,0.625,3.248c0.417,1.052,1.03,1.844,1.84,2.377c0.81,0.534,1.733,0.8,2.77,0.8
			c1.352,0,2.547-0.435,3.585-1.306c1.038-0.871,1.556-2.271,1.556-4.201c0-1.977-0.518-3.55-1.556-4.719
			c-1.038-1.168-2.288-1.753-3.75-1.753c-1.524,0-2.75,0.483-3.677,1.448C235.546,16.42,235.083,17.788,235.083,19.561z"/>
		<path fill="#575756" d="M268.269,3.09V1.745c1.745-0.189,3.219-0.412,4.421-0.672c1.202-0.259,2.377-0.577,3.525-0.955
			l0.306,0.212c-0.063,1.335-0.133,3.914-0.212,7.734l-0.094,3.773v14.761c0,1.603,0.026,2.991,0.082,4.162
			c0.055,1.171,0.153,1.871,0.294,2.099c0.143,0.228,0.378,0.412,0.708,0.554c0.331,0.142,1.313,0.283,2.949,0.424v1.274
			c-1.919-0.11-3.27-0.166-4.056-0.166c-0.677,0-2.06,0.055-4.15,0.166c0.047-1.085,0.086-2.546,0.118-4.386
			c-0.629,0.457-1.474,1.14-2.536,2.052c-1.061,0.912-1.89,1.659-2.487,2.24c-1.258,0.314-2.366,0.472-3.325,0.472
			c-1.776,0-3.411-0.441-4.904-1.321c-1.494-0.88-2.646-2.157-3.455-3.832c-0.81-1.674-1.214-3.556-1.214-5.647
			c0-1.572,0.247-3.062,0.743-4.469c0.495-1.406,1.121-2.495,1.875-3.266c0.424-0.44,1.391-1.108,2.9-2.004
			c1.51-0.896,2.731-1.544,3.667-1.945c0.936-0.4,1.954-0.602,3.054-0.602c0.991,0,1.96,0.122,2.912,0.366s1.875,0.617,2.771,1.12
			V7.687c0-2.185-0.095-3.514-0.283-3.985c-0.063-0.173-0.18-0.298-0.354-0.377C271.208,3.184,270.123,3.105,268.269,3.09z
			 M272.16,17.917c-1.07-1.177-2.19-2.037-3.361-2.578c-1.171-0.542-2.322-0.812-3.454-0.812c-1.289,0-2.477,0.33-3.561,0.989
			c-1.085,0.66-1.914,1.657-2.487,2.991c-0.575,1.335-0.86,2.936-0.86,4.804c0,2.874,0.715,5.118,2.144,6.735
			c1.43,1.617,3.15,2.425,5.163,2.425c1.052,0,1.996-0.219,2.828-0.659c0.833-0.44,1.564-1.083,2.195-1.931
			c0.63-0.848,1.031-1.79,1.205-2.827c0.126-0.691,0.189-2.395,0.189-5.11V17.917z"/>
		<path fill="#575756" d="M284.831,18.959l-1.25-0.331c0.015-0.362,0.023-0.856,0.023-1.485c0-0.661-0.009-1.187-0.023-1.581
			c1.999-1.304,3.636-2.185,4.911-2.641c0.976-0.329,2.07-0.495,3.284-0.495c1.793,0,3.305,0.338,4.533,1.014
			c1.228,0.675,2.142,1.643,2.74,2.9c0.408,0.88,0.613,2.083,0.613,3.607l-0.117,4.315v7.027c0,0.755,0.062,1.297,0.188,1.628
			c0.095,0.235,0.245,0.408,0.448,0.519c0.158,0.094,0.487,0.157,0.991,0.188l1.533,0.142v1.344
			c-1.289-0.11-2.423-0.166-3.396-0.166c-0.943,0-2.201,0.055-3.772,0.166l0.118-4.15c-3.208,2.421-5.11,3.784-5.708,4.091
			s-1.351,0.46-2.263,0.46c-1.902,0-3.384-0.508-4.445-1.521c-1.062-1.014-1.592-2.362-1.592-4.044c0-1.085,0.185-2.075,0.554-2.971
			c0.369-0.896,0.813-1.607,1.333-2.134s1.045-0.916,1.58-1.167c0.912-0.424,2.393-0.88,4.445-1.367
			c2.05-0.488,4.083-0.849,6.096-1.085c0.015-1.493-0.166-2.657-0.543-3.49c-0.376-0.833-1.014-1.517-1.909-2.052
			c-0.896-0.534-1.989-0.801-3.278-0.801c-0.928,0-1.741,0.126-2.44,0.377c-0.7,0.252-1.129,0.463-1.285,0.637l-0.424,0.849
			C285.35,17.686,285.034,18.424,284.831,18.959z M295.654,22.661c-2.045,0.346-3.79,0.73-5.235,1.156
			c-1.447,0.424-2.469,0.864-3.066,1.32c-0.362,0.268-0.676,0.669-0.943,1.203c-0.409,0.786-0.612,1.659-0.612,2.617
			c0,1.164,0.321,2.072,0.966,2.724c0.644,0.652,1.541,0.979,2.688,0.979c1.053,0,2.094-0.303,3.124-0.908
			c1.03-0.605,2.056-1.513,3.079-2.724V22.661z"/>
		<path fill="#575756" d="M304.088,35.111v-1.344l2.215-0.023c0.345-0.016,0.61-0.075,0.79-0.177
			c0.182-0.103,0.32-0.231,0.413-0.389c0.172-0.314,0.275-0.873,0.307-1.673c0.016-0.205,0.07-2.458,0.166-6.762v-9.778
			c0-2.624-0.041-5.333-0.119-8.13c-0.062-1.885-0.15-2.937-0.262-3.156c-0.078-0.157-0.204-0.268-0.378-0.331
			c-0.238-0.109-1.329-0.164-3.273-0.164V1.792c3.552-0.44,6.021-0.991,7.403-1.651C311.555,0.047,311.713,0,311.821,0
			c0.109,0,0.195,0.036,0.26,0.106c0.062,0.071,0.094,0.169,0.094,0.294c0,0.11-0.016,0.267-0.047,0.472l-0.023,0.777
			c-0.08,2.812-0.127,5.208-0.141,7.188l-0.049,3.676v12.229c0.066,4.085,0.105,6.292,0.119,6.622
			c0.014,0.786,0.109,1.359,0.285,1.721c0.062,0.141,0.156,0.263,0.282,0.365c0.127,0.103,0.318,0.185,0.57,0.248
			c0.111,0.016,0.989,0.04,2.634,0.071v1.344c-2.137-0.11-4.016-0.166-5.635-0.166C308.63,34.946,306.602,35.001,304.088,35.111z"/>
		<path fill="#575756" d="M335.537,31.45l-0.753,1.698c-1.085,0.678-1.879,1.127-2.383,1.348c-0.739,0.331-1.584,0.611-2.534,0.839
			c-0.952,0.229-1.952,0.343-3.006,0.343c-2.076,0-3.955-0.432-5.637-1.296c-1.684-0.865-2.99-2.158-3.927-3.879
			c-0.935-1.722-1.402-3.737-1.402-6.048c0-1.807,0.247-3.439,0.743-4.893c0.495-1.454,1.056-2.527,1.686-3.218
			c0.456-0.503,1.162-1.081,2.122-1.733c0.958-0.652,1.91-1.167,2.853-1.545c1.243-0.518,2.587-0.778,4.034-0.778
			c1.76,0,3.35,0.401,4.774,1.203c1.422,0.802,2.464,1.895,3.123,3.278c0.661,1.384,0.991,2.948,0.991,4.693
			c0,0.439-0.039,0.975-0.119,1.603c-1.13,0.221-2.142,0.362-3.037,0.424c-1.693,0.126-3.389,0.189-5.085,0.189h-7.558
			c0.031,2.253,0.42,4.078,1.167,5.473c0.747,1.395,1.777,2.422,3.09,3.084c1.312,0.662,2.675,0.992,4.092,0.992
			c0.957,0,1.911-0.155,2.863-0.466c0.95-0.31,2.127-0.88,3.525-1.708L335.537,31.45z M320.423,21.812
			c0.439,0.047,1.274,0.094,2.499,0.142c2.344,0.078,3.955,0.118,4.835,0.118c2.089,0,3.467-0.04,4.126-0.118
			c0.016-0.376,0.023-0.668,0.023-0.873c0-2.483-0.504-4.307-1.508-5.471c-1.007-1.163-2.352-1.745-4.033-1.745
			c-1.777,0-3.207,0.637-4.292,1.91C320.989,17.049,320.438,19.062,320.423,21.812z"/>
		<path fill="#575756" d="M336.873,35.111v-1.344l2.253-0.023c0.334-0.016,0.59-0.075,0.773-0.177
			c0.181-0.103,0.317-0.232,0.413-0.39c0.176-0.313,0.287-0.873,0.334-1.674c0-0.204,0.039-2.46,0.117-6.768V21.93
			c0-1.257-0.023-2.61-0.07-4.056c-0.047-0.928-0.123-1.478-0.225-1.651s-0.279-0.303-0.53-0.389
			c-0.252-0.087-1.274-0.122-3.065-0.106v-1.344c3.174-0.439,5.494-1.014,6.955-1.721c0.316-0.157,0.528-0.236,0.638-0.236
			s0.195,0.039,0.26,0.118c0.062,0.078,0.094,0.196,0.094,0.353c0,0.11-0.008,0.236-0.023,0.377
			c-0.047,0.566-0.094,1.761-0.143,3.584l4.386-3.75c1.289-0.471,2.509-0.707,3.656-0.707c1.273,0,2.479,0.26,3.618,0.778
			c1.142,0.519,1.996,1.171,2.571,1.958c0.574,0.786,0.954,1.776,1.144,2.971c0.109,0.708,0.164,2.681,0.164,5.919v4.173
			c0,2.044,0.057,3.435,0.166,4.174c0.08,0.472,0.2,0.797,0.366,0.979c0.164,0.181,0.42,0.295,0.767,0.342l2.522,0.071v1.344
			c-1.541-0.11-2.822-0.166-3.843-0.166c-0.882,0-2.343,0.055-4.386,0.166c0.219-3.882,0.33-6.334,0.33-7.357v-3.961
			c0-2.468-0.096-4.086-0.283-4.856c-0.268-1.054-0.872-1.903-1.816-2.548c-0.942-0.645-2.084-0.966-3.418-0.966
			c-1.181,0-2.257,0.278-3.232,0.836c-0.974,0.558-1.67,1.202-2.086,1.933c-0.417,0.731-0.626,1.961-0.626,3.691v2.853
			c0.08,4.088,0.119,6.296,0.119,6.627c0.031,0.786,0.127,1.36,0.285,1.722c0.062,0.141,0.157,0.263,0.284,0.366
			s0.324,0.185,0.594,0.248c0.095,0.016,0.963,0.04,2.609,0.071v1.344c-1.917-0.11-3.655-0.166-5.21-0.166
			C342.014,34.946,339.86,35.001,336.873,35.111z"/>
		<path fill="#575756" d="M163.849,53.94v-1.51c1.65,0.063,3.231,0.095,4.74,0.095c1.524,0,2.988-0.032,4.386-0.095
			c1.384,3.143,2.65,5.899,3.799,8.271l8.943,18.398l8.047-16.884c2.206-4.579,3.676-7.841,4.417-9.786
			c1.667,0.063,3.074,0.095,4.221,0.095c1.053,0,2.76-0.032,5.118-0.095v1.51c-1.871,0.031-3.007,0.114-3.407,0.247
			c-0.401,0.134-0.681,0.319-0.837,0.554c-0.205,0.314-0.323,1.076-0.354,2.286c-0.016,0.313-0.055,2.544-0.118,6.691v10.909
			c0,2.137,0.039,4.218,0.118,6.244c0.047,1.493,0.16,2.38,0.341,2.663c0.179,0.283,0.469,0.492,0.867,0.625
			c0.399,0.134,1.529,0.216,3.391,0.248v1.509c-3.176-0.142-5.416-0.212-6.72-0.212c-1.053,0-3.381,0.07-6.98,0.212v-1.509
			c1.87-0.032,3.01-0.114,3.419-0.248c0.409-0.133,0.684-0.318,0.825-0.554c0.204-0.313,0.322-1.075,0.353-2.285
			c0.017-0.33,0.056-2.56,0.118-6.693V57.332L190.4,74.346c-1.274,2.655-2.272,4.791-2.995,6.409
			c-0.519,1.178-1.305,3.047-2.358,5.607h-0.92c-0.205-0.596-0.394-1.076-0.566-1.437l-1.604-3.417L170.687,58.11v16.517
			c0,2.137,0.032,4.218,0.095,6.245c0.047,1.493,0.161,2.38,0.342,2.663c0.18,0.283,0.471,0.492,0.872,0.625
			c0.401,0.134,1.536,0.216,3.407,0.248v1.509l-5.683-0.166l-5.871,0.166v-1.509c1.846-0.032,2.971-0.114,3.378-0.248
			c0.407-0.133,0.688-0.318,0.845-0.554c0.188-0.313,0.305-1.075,0.352-2.285c0.02-0.329,0.059-2.56,0.118-6.692V63.719
			c0-2.137-0.023-4.226-0.071-6.268c-0.047-1.493-0.161-2.377-0.342-2.651c-0.181-0.276-0.471-0.479-0.872-0.613
			C166.856,54.055,165.719,53.972,163.849,53.94z"/>
		<path fill="#575756" d="M226.99,82.254l-0.755,1.698c-1.085,0.678-1.879,1.127-2.381,1.348c-0.74,0.331-1.584,0.611-2.535,0.839
			c-0.953,0.228-1.954,0.342-3.007,0.342c-2.076,0-3.954-0.432-5.635-1.296c-1.683-0.864-2.992-2.158-3.927-3.879
			s-1.402-3.737-1.402-6.048c0-1.807,0.247-3.439,0.742-4.893c0.495-1.454,1.057-2.527,1.686-3.218
			c0.456-0.504,1.163-1.081,2.122-1.733c0.959-0.652,1.911-1.167,2.854-1.545c1.241-0.519,2.586-0.778,4.032-0.778
			c1.76,0,3.352,0.402,4.775,1.203c1.422,0.802,2.464,1.895,3.124,3.277c0.661,1.384,0.991,2.948,0.991,4.693
			c0,0.44-0.04,0.975-0.118,1.603c-1.13,0.221-2.143,0.362-3.038,0.424c-1.695,0.126-3.39,0.189-5.086,0.189h-7.558
			c0.031,2.253,0.421,4.078,1.167,5.473s1.776,2.422,3.089,3.085c1.312,0.662,2.675,0.992,4.091,0.992
			c0.959,0,1.914-0.155,2.866-0.465c0.95-0.311,2.125-0.88,3.525-1.709L226.99,82.254z M211.875,72.615
			c0.44,0.047,1.274,0.095,2.5,0.142c2.342,0.079,3.953,0.118,4.834,0.118c2.09,0,3.466-0.039,4.126-0.118
			c0.016-0.376,0.023-0.668,0.023-0.872c0-2.484-0.502-4.308-1.509-5.471c-1.006-1.163-2.35-1.745-4.031-1.745
			c-1.777,0-3.208,0.637-4.292,1.91C212.441,67.853,211.891,69.865,211.875,72.615z"/>
		<path fill="#575756" d="M243.598,53.893v-1.345c1.745-0.188,3.219-0.412,4.422-0.671c1.202-0.26,2.377-0.578,3.525-0.956
			l0.306,0.212c-0.063,1.336-0.135,3.914-0.212,7.734l-0.094,3.773v14.761c0,1.603,0.026,2.991,0.082,4.162
			c0.054,1.171,0.153,1.871,0.294,2.099c0.142,0.228,0.377,0.412,0.707,0.554c0.331,0.142,1.313,0.283,2.948,0.424v1.274
			c-1.917-0.11-3.27-0.166-4.055-0.166c-0.677,0-2.06,0.055-4.151,0.166c0.047-1.085,0.086-2.547,0.118-4.386
			c-0.628,0.457-1.473,1.14-2.534,2.052c-1.061,0.911-1.89,1.658-2.487,2.239c-1.258,0.315-2.366,0.472-3.325,0.472
			c-1.776,0-3.411-0.44-4.905-1.321c-1.493-0.88-2.646-2.157-3.455-3.833c-0.81-1.674-1.213-3.555-1.213-5.647
			c0-1.572,0.247-3.061,0.742-4.468c0.495-1.407,1.121-2.496,1.875-3.266c0.424-0.439,1.391-1.109,2.9-2.005
			c1.51-0.896,2.731-1.544,3.667-1.945c0.935-0.4,1.954-0.601,3.054-0.601c0.99,0,1.96,0.122,2.912,0.366
			c0.951,0.244,1.875,0.617,2.77,1.12V58.49c0-2.185-0.094-3.513-0.282-3.984c-0.063-0.173-0.181-0.299-0.354-0.378
			C246.537,53.988,245.453,53.909,243.598,53.893z M247.488,68.72c-1.069-1.177-2.189-2.037-3.359-2.578
			c-1.171-0.542-2.322-0.812-3.455-0.812c-1.29,0-2.476,0.33-3.561,0.989c-1.084,0.66-1.914,1.656-2.487,2.991
			c-0.574,1.334-0.86,2.936-0.86,4.804c0,2.873,0.715,5.118,2.144,6.734c1.43,1.617,3.151,2.426,5.163,2.426
			c1.053,0,1.996-0.219,2.828-0.659c0.833-0.439,1.564-1.083,2.195-1.931c0.63-0.848,1.031-1.791,1.205-2.827
			c0.125-0.69,0.188-2.394,0.188-5.11V68.72z"/>
		<path fill="#575756" d="M257.052,66.508v-1.343c3.049-0.347,5.612-1.006,7.687-1.981l0.519,0.378
			c-0.126,3.349-0.188,5.911-0.188,7.687v4.292c0.078,4.087,0.125,6.296,0.141,6.626c0.017,0.787,0.103,1.36,0.26,1.721
			c0.078,0.141,0.181,0.264,0.307,0.366c0.125,0.103,0.314,0.186,0.565,0.248c0.095,0.016,0.967,0.039,2.617,0.071v1.344
			c-2.389-0.11-4.299-0.166-5.729-0.166c-1.258,0-3.318,0.055-6.178,0.166v-1.344l2.253-0.024c0.333-0.016,0.589-0.075,0.771-0.177
			c0.181-0.102,0.32-0.232,0.416-0.389c0.173-0.314,0.285-0.873,0.332-1.674c0-0.204,0.039-2.46,0.118-6.768v-4.15
			c0-2.343-0.079-3.733-0.235-4.174c-0.094-0.235-0.263-0.412-0.507-0.53C259.956,66.567,258.906,66.508,257.052,66.508z
			 M262.805,52.714c0.739,0,1.364,0.259,1.875,0.778c0.51,0.52,0.766,1.148,0.766,1.886c0,0.724-0.259,1.344-0.777,1.863
			c-0.519,0.519-1.14,0.778-1.863,0.778c-0.738,0-1.367-0.259-1.886-0.778c-0.519-0.52-0.778-1.14-0.778-1.863
			c0-0.738,0.259-1.367,0.778-1.886C261.438,52.973,262.066,52.714,262.805,52.714z"/>
		<path fill="#575756" d="M287.909,83.227l-0.943,1.58c-1.086,0.582-2.159,1.006-3.22,1.274c-1.06,0.266-2.259,0.4-3.595,0.4
			c-3.301,0-5.931-0.995-7.889-2.985c-1.956-1.991-2.935-4.724-2.935-8.202c0-1.842,0.264-3.443,0.79-4.803
			c0.527-1.361,1.175-2.412,1.946-3.151c0.518-0.52,1.505-1.192,2.958-2.019c1.453-0.826,2.472-1.357,3.054-1.593
			c1.068-0.457,2.35-0.685,3.843-0.685c1.415,0,2.688,0.149,3.82,0.449c0.723,0.188,1.446,0.502,2.17,0.943
			c-0.184,1.209-0.312,2.125-0.389,2.747c-0.075,0.621-0.174,1.75-0.296,3.384h-1.344c-0.093-1.524-0.188-2.477-0.283-2.853
			c-0.064-0.237-0.206-0.449-0.426-0.637c-0.566-0.441-1.295-0.821-2.184-1.144c-0.891-0.321-1.863-0.484-2.918-0.484
			c-1.323,0-2.469,0.272-3.438,0.815c-0.97,0.543-1.721,1.405-2.256,2.585c-0.535,1.18-0.803,2.644-0.803,4.392
			c0,2.14,0.377,4.076,1.132,5.808c0.755,1.731,1.78,2.994,3.076,3.789c1.298,0.795,2.748,1.192,4.352,1.192
			c0.801,0,1.583-0.097,2.346-0.293c0.762-0.197,1.74-0.57,2.936-1.121L287.909,83.227z"/>
		<path fill="#575756" d="M292.587,69.763l-1.25-0.331c0.015-0.362,0.023-0.857,0.023-1.485c0-0.661-0.009-1.188-0.023-1.581
			c1.999-1.305,3.636-2.185,4.911-2.641c0.976-0.33,2.07-0.495,3.284-0.495c1.793,0,3.305,0.338,4.531,1.014
			c1.229,0.676,2.143,1.643,2.741,2.901c0.408,0.88,0.613,2.082,0.613,3.607l-0.117,4.315v7.027c0,0.755,0.062,1.297,0.188,1.627
			c0.094,0.235,0.244,0.408,0.447,0.519c0.158,0.095,0.487,0.158,0.991,0.189l1.533,0.142v1.344c-1.29-0.11-2.423-0.166-3.396-0.166
			c-0.942,0-2.2,0.055-3.773,0.166l0.119-4.15c-3.209,2.42-5.111,3.784-5.708,4.091c-0.597,0.307-1.351,0.46-2.263,0.46
			c-1.902,0-3.384-0.508-4.445-1.521c-1.061-1.015-1.592-2.362-1.592-4.044c0-1.085,0.185-2.076,0.554-2.972
			c0.369-0.896,0.813-1.607,1.333-2.133c0.518-0.526,1.043-0.916,1.579-1.167c0.912-0.424,2.393-0.88,4.445-1.368
			c2.05-0.488,4.083-0.849,6.096-1.084c0.014-1.493-0.166-2.657-0.544-3.49c-0.377-0.833-1.013-1.517-1.908-2.052
			c-0.897-0.534-1.99-0.802-3.279-0.802c-0.928,0-1.741,0.126-2.44,0.378c-0.7,0.252-1.128,0.463-1.285,0.636l-0.424,0.849
			C293.106,68.489,292.791,69.228,292.587,69.763z M303.411,73.464c-2.044,0.346-3.788,0.73-5.235,1.156
			c-1.447,0.424-2.469,0.864-3.066,1.32c-0.362,0.268-0.676,0.669-0.943,1.203c-0.408,0.786-0.613,1.659-0.613,2.617
			c0,1.164,0.322,2.072,0.967,2.724c0.645,0.652,1.541,0.979,2.688,0.979c1.053,0,2.094-0.303,3.124-0.908
			c1.03-0.605,2.056-1.513,3.078-2.724V73.464z"/>
		<path fill="#575756" d="M311.845,85.915v-1.344l2.217-0.024c0.343-0.016,0.608-0.075,0.788-0.177
			c0.182-0.102,0.32-0.231,0.413-0.388c0.172-0.315,0.275-0.873,0.307-1.673c0.016-0.205,0.07-2.458,0.166-6.763v-9.778
			c0-2.623-0.041-5.333-0.119-8.129c-0.062-1.884-0.15-2.937-0.26-3.156c-0.08-0.158-0.206-0.268-0.38-0.331
			c-0.238-0.109-1.329-0.164-3.273-0.164v-1.392c3.552-0.439,6.02-0.991,7.403-1.65c0.205-0.095,0.362-0.142,0.472-0.142
			s0.195,0.036,0.26,0.106c0.062,0.071,0.094,0.169,0.094,0.294c0,0.11-0.016,0.268-0.047,0.472l-0.023,0.777
			c-0.08,2.812-0.127,5.208-0.141,7.188l-0.049,3.676v12.229c0.066,4.085,0.105,6.292,0.119,6.622
			c0.014,0.786,0.109,1.359,0.285,1.72c0.062,0.142,0.156,0.264,0.282,0.365c0.127,0.103,0.318,0.186,0.57,0.248
			c0.111,0.016,0.989,0.039,2.634,0.071v1.344c-2.137-0.11-4.016-0.166-5.635-0.166C316.387,85.75,314.357,85.805,311.845,85.915z"
			/>
		<g>
			<path fill="#575756" d="M164.226,104.744v-1.509c3.16,0.11,5.659,0.165,7.498,0.165c1.228,0,2.532-0.018,3.914-0.053l3.703-0.133
				c0.409-0.018,0.786-0.026,1.132-0.026c2.499,0,4.465,0.275,5.895,0.826c1.43,0.549,2.547,1.426,3.348,2.628
				c0.802,1.203,1.204,2.575,1.204,4.115c0,1.383-0.335,2.759-1.003,4.126c-0.668,1.367-1.639,2.527-2.913,3.478
				c-1.273,0.952-2.602,1.631-3.985,2.04c-0.943,0.283-2.012,0.424-3.207,0.424c-1.006,0-2.091-0.109-3.255-0.329l-0.495-1.745
				c1.399,0.33,2.499,0.495,3.301,0.495c1.179,0,2.3-0.287,3.36-0.862c1.061-0.575,1.886-1.441,2.476-2.599
				c0.59-1.156,0.884-2.436,0.884-3.838c0-1.354-0.286-2.578-0.86-3.672c-0.574-1.094-1.446-1.925-2.617-2.492
				c-1.17-0.567-2.59-0.851-4.256-0.851c-1.494,0-3.097,0.267-4.81,0.802c-0.142,1.666-0.212,4.273-0.212,7.822v11.875
				c0,2.136,0.023,4.218,0.07,6.244c0.047,1.493,0.162,2.379,0.342,2.662c0.18,0.283,0.471,0.492,0.873,0.624
				c0.4,0.134,1.536,0.217,3.407,0.248v1.509c-2.909-0.11-5.046-0.165-6.415-0.165c-0.534,0-2.994,0.055-7.38,0.165v-1.509
				c1.845-0.031,2.971-0.114,3.378-0.248c0.406-0.132,0.688-0.317,0.845-0.553c0.188-0.314,0.304-1.075,0.351-2.285
				c0.02-0.33,0.06-2.561,0.118-6.691v-10.91c0-2.136-0.023-4.226-0.07-6.268c-0.048-1.492-0.162-2.376-0.341-2.651
				c-0.182-0.275-0.472-0.479-0.873-0.613C167.232,104.858,166.096,104.775,164.226,104.744z"/>
			<path fill="#575756" d="M218.385,135.375v1.344c-2.06-0.11-3.616-0.165-4.669-0.165c-1.164,0-2.342,0.055-3.537,0.165
				c0.093-1.274,0.165-2.704,0.211-4.292c-0.943,0.755-2.067,1.784-3.371,3.089c-0.298,0.299-0.589,0.52-0.872,0.661
				c-0.675,0.376-1.351,0.648-2.026,0.813c-0.676,0.164-1.485,0.247-2.427,0.247c-1.272,0-2.337-0.173-3.192-0.519
				c-0.856-0.345-1.59-0.873-2.204-1.58c-0.458-0.52-0.811-1.191-1.056-2.016c-0.246-0.825-0.368-1.82-0.368-2.982
				c0-0.551,0.02-1.069,0.06-1.557c0.039-0.487,0.059-0.967,0.059-1.438v-4.032c0-0.409-0.023-1.439-0.07-3.089
				c-0.032-1.038-0.103-1.713-0.212-2.028c-0.063-0.156-0.166-0.282-0.307-0.376c-0.236-0.158-0.652-0.236-1.25-0.236
				c-0.865,0-1.549-0.007-2.052-0.023v-1.344c3.38-0.377,5.832-0.982,7.358-1.815c0.25-0.142,0.448-0.213,0.589-0.213
				c0.11,0,0.201,0.04,0.271,0.118c0.071,0.079,0.106,0.197,0.106,0.354c0,0.126-0.008,0.283-0.023,0.471
				c-0.063,0.504-0.118,1.471-0.166,2.9c-0.094,2.625-0.142,4.386-0.142,5.282v4.598c0,1.918,0.13,3.267,0.389,4.045
				c0.26,0.778,0.762,1.398,1.508,1.863c0.747,0.463,1.67,0.695,2.77,0.695c0.753,0,1.504-0.13,2.25-0.39
				c0.748-0.26,1.418-0.635,2.016-1.124c0.441-0.361,0.889-0.848,1.347-1.459c0.347-0.456,0.575-0.806,0.685-1.049
				c0.11-0.243,0.18-0.6,0.211-1.071c0.079-1.384,0.118-2.759,0.118-4.127v-1.98c0-0.409-0.023-1.439-0.07-3.089
				c-0.031-1.038-0.103-1.713-0.211-2.028c-0.063-0.156-0.165-0.282-0.308-0.376c-0.236-0.158-0.652-0.236-1.25-0.236
				c-0.865,0-1.548-0.007-2.051-0.023v-1.344c3.37-0.377,5.815-0.982,7.336-1.815c0.25-0.142,0.447-0.213,0.588-0.213
				c0.109,0,0.199,0.04,0.27,0.118c0.07,0.079,0.105,0.197,0.105,0.354c0,0.126-0.007,0.283-0.021,0.471
				c-0.044,0.504-0.094,1.501-0.151,2.995c-0.089,2.562-0.135,4.292-0.135,5.188v3.23l0.048,3.277
				c0.059,1.902,0.099,3.019,0.118,3.348c0.016,0.787,0.103,1.36,0.257,1.722c0.079,0.142,0.181,0.263,0.306,0.366
				c0.125,0.103,0.312,0.185,0.562,0.248C215.877,135.32,216.744,135.344,218.385,135.375z"/>
			<path fill="#575756" d="M221.367,136.813c0.189-1.979,0.291-3.228,0.308-3.747c0.093-3.408,0.141-5.412,0.141-6.009v-10.486
				c0-2.623-0.04-5.333-0.118-8.129c-0.063-1.885-0.151-2.938-0.261-3.157c-0.08-0.158-0.206-0.268-0.38-0.331
				c-0.237-0.109-1.329-0.165-3.273-0.165v-1.392c3.552-0.44,6.021-0.99,7.403-1.651c0.205-0.094,0.363-0.142,0.473-0.142
				c0.108,0,0.195,0.036,0.259,0.106c0.062,0.071,0.094,0.169,0.094,0.294c0,0.11-0.017,0.268-0.047,0.471l-0.023,0.777
				c-0.079,2.81-0.126,5.204-0.142,7.182l-0.048,3.673v4.663l3.255-3.184c0.424-0.361,1.124-0.715,2.099-1.062
				c0.974-0.345,2.012-0.519,3.112-0.519c1.729,0,3.262,0.405,4.599,1.215c1.336,0.81,2.362,1.953,3.077,3.431
				c0.715,1.478,1.073,3.112,1.073,4.904c0,1.384-0.205,2.696-0.614,3.938c-0.409,1.241-0.936,2.35-1.58,3.325
				c-0.471,0.738-0.872,1.241-1.202,1.509l-3.442,2.476c-1.4,1.037-2.493,1.702-3.279,1.993c-0.786,0.29-1.792,0.436-3.018,0.436
				c-1.054,0-2.028-0.141-2.925-0.424c-0.896-0.283-1.847-0.778-2.853-1.485l-1.909,1.792L221.367,136.813z M225.752,121.604v8.842
				c0,0.787,0.044,1.29,0.13,1.509c0.087,0.221,0.35,0.512,0.79,0.873c0.661,0.551,1.427,0.991,2.3,1.321
				c0.872,0.331,1.794,0.495,2.77,0.495c2.28,0,4.033-0.879,5.259-2.641c1.226-1.76,1.838-3.938,1.838-6.531
				c0-1.84-0.291-3.38-0.873-4.623c-0.582-1.241-1.382-2.173-2.405-2.794c-1.022-0.621-2.169-0.932-3.442-0.932
				c-1.493,0-2.831,0.429-4.009,1.286C226.932,119.265,226.146,120.331,225.752,121.604z"/>
			<path fill="#575756" d="M242.508,136.718v-1.344l2.216-0.023c0.345-0.015,0.608-0.074,0.79-0.177
				c0.18-0.103,0.318-0.231,0.413-0.389c0.173-0.314,0.274-0.873,0.306-1.673c0.016-0.205,0.07-2.458,0.165-6.763v-9.778
				c0-2.623-0.039-5.333-0.118-8.13c-0.062-1.884-0.15-2.937-0.26-3.156c-0.079-0.158-0.206-0.268-0.379-0.331
				c-0.237-0.109-1.329-0.165-3.274-0.165v-1.392c3.552-0.44,6.021-0.99,7.404-1.651c0.205-0.094,0.362-0.142,0.472-0.142
				c0.109,0,0.196,0.036,0.258,0.106c0.063,0.071,0.095,0.169,0.095,0.294c0,0.11-0.016,0.268-0.048,0.472l-0.023,0.777
				c-0.078,2.812-0.126,5.208-0.141,7.188l-0.046,3.675v12.229c0.064,4.085,0.104,6.292,0.118,6.622
				c0.015,0.786,0.11,1.359,0.284,1.721c0.063,0.142,0.157,0.263,0.285,0.365c0.127,0.103,0.316,0.185,0.569,0.248
				c0.111,0.016,0.989,0.04,2.634,0.07v1.344c-2.137-0.11-4.016-0.165-5.635-0.165C247.05,136.553,245.021,136.608,242.508,136.718z
				"/>
			<path fill="#575756" d="M255.522,117.312v-1.344c3.049-0.346,5.612-1.007,7.687-1.981l0.519,0.378
				c-0.125,3.348-0.188,5.911-0.188,7.687v4.292c0.078,4.087,0.125,6.296,0.14,6.625c0.017,0.787,0.103,1.36,0.261,1.722
				c0.078,0.142,0.18,0.263,0.306,0.366s0.314,0.185,0.566,0.248c0.095,0.016,0.967,0.04,2.617,0.07v1.344
				c-2.389-0.11-4.299-0.165-5.729-0.165c-1.258,0-3.318,0.055-6.179,0.165v-1.344l2.253-0.023c0.333-0.015,0.589-0.074,0.771-0.177
				c0.182-0.103,0.32-0.232,0.416-0.39c0.174-0.313,0.285-0.873,0.332-1.674c0-0.204,0.039-2.46,0.118-6.768v-4.15
				c0-2.343-0.079-3.734-0.235-4.174c-0.095-0.235-0.263-0.412-0.507-0.53C258.426,117.371,257.376,117.312,255.522,117.312z
				 M261.275,103.518c0.738,0,1.364,0.259,1.875,0.778c0.51,0.52,0.766,1.147,0.766,1.887c0,0.723-0.26,1.344-0.777,1.863
				c-0.519,0.519-1.141,0.778-1.863,0.778c-0.738,0-1.368-0.26-1.887-0.778c-0.519-0.519-0.778-1.14-0.778-1.863
				c0-0.739,0.26-1.367,0.778-1.887C259.908,103.777,260.537,103.518,261.275,103.518z"/>
			<path fill="#575756" d="M269.454,129.597h1.415c0.016,0.912,0.062,1.636,0.141,2.17c0.078,0.534,0.213,1.057,0.401,1.568
				c0.189,0.51,0.48,0.943,0.875,1.296c0.393,0.354,0.823,0.629,1.288,0.825c0.464,0.197,0.938,0.326,1.417,0.389
				c0.481,0.063,1.208,0.095,2.185,0.095c1.607,0,2.926-0.425,3.958-1.274c1.032-0.849,1.547-2.011,1.547-3.49
				c0-0.66-0.161-1.241-0.484-1.745c-0.323-0.503-0.788-0.896-1.394-1.178c-0.605-0.283-1.909-0.652-3.909-1.108
				c-2-0.456-3.292-0.786-3.874-0.991c-0.883-0.33-1.583-0.73-2.103-1.203c-0.52-0.471-0.933-1.069-1.241-1.792
				c-0.306-0.723-0.459-1.51-0.459-2.358c0-1.242,0.326-2.386,0.979-3.431c0.653-1.045,1.681-1.895,3.082-2.547
				c1.402-0.652,2.929-0.978,4.582-0.978c0.993,0,2.141,0.137,3.449,0.413c1.306,0.275,2.37,0.617,3.188,1.026
				c-0.11,1.745-0.189,3.521-0.235,5.329h-1.345c-0.078-1.147-0.168-1.902-0.271-2.264c-0.103-0.361-0.241-0.683-0.415-0.967
				c-0.173-0.283-0.473-0.585-0.897-0.908c-0.425-0.322-0.974-0.609-1.643-0.86c-0.67-0.251-1.494-0.377-2.47-0.377
				c-1.386,0-2.502,0.408-3.345,1.226c-0.843,0.817-1.264,1.776-1.264,2.877c0,0.613,0.123,1.14,0.367,1.58
				c0.244,0.441,0.569,0.798,0.98,1.073c0.409,0.275,0.983,0.522,1.725,0.743l3.92,0.967c1.984,0.504,3.351,0.936,4.099,1.297
				c0.747,0.362,1.349,0.924,1.806,1.687c0.457,0.762,0.685,1.678,0.685,2.746c0,2.123-0.877,3.974-2.632,5.554
				c-1.756,1.58-4.105,2.37-7.049,2.37c-1.354,0-3.156-0.205-5.407-0.613c-1.245-0.236-1.914-0.401-2.007-0.495
				c-0.063-0.047-0.095-0.125-0.095-0.236s0.016-0.244,0.047-0.401c0.142-0.676,0.236-1.335,0.284-1.98
				C269.382,132.985,269.42,131.641,269.454,129.597z"/>
			<path fill="#575756" d="M286.126,136.718v-1.344l2.215-0.023c0.345-0.015,0.609-0.074,0.79-0.177
				c0.181-0.103,0.319-0.232,0.414-0.39c0.172-0.313,0.274-0.873,0.305-1.674c0.016-0.204,0.071-2.46,0.166-6.768v-12.191
				c0-2.625-0.04-5.337-0.118-8.136c-0.063-1.887-0.151-2.939-0.261-3.16c-0.078-0.157-0.205-0.267-0.379-0.33
				c-0.237-0.109-1.328-0.165-3.274-0.165v-1.391c3.553-0.439,6.021-0.991,7.404-1.65c0.205-0.095,0.363-0.142,0.472-0.142
				s0.196,0.035,0.259,0.106c0.062,0.071,0.094,0.169,0.094,0.295c0,0.11-0.014,0.268-0.042,0.471l-0.021,0.778
				c-0.072,2.814-0.114,5.211-0.129,7.192l-0.042,3.679v6.885c0.219-0.173,0.84-0.708,1.86-1.604
				c1.021-0.896,1.624-1.43,1.813-1.604c0.297-0.282,0.533-0.471,0.706-0.565c0.298-0.157,0.745-0.314,1.342-0.471
				c0.815-0.221,1.609-0.331,2.378-0.331c1.443,0,2.813,0.343,4.108,1.026c1.293,0.683,2.192,1.544,2.696,2.582
				c0.501,1.038,0.753,2.57,0.753,4.598v4.15l0.059,3.254c0.039,2.028,0.061,3.168,0.061,3.419c0.031,0.754,0.125,1.306,0.283,1.651
				c0.063,0.157,0.159,0.287,0.286,0.389c0.125,0.103,0.314,0.177,0.569,0.225c0.094,0.016,0.917,0.04,2.469,0.07v1.344
				c-1.793-0.079-3.099-0.118-3.916-0.118c-0.692,0-2.114,0.039-4.267,0.118c0.219-2.326,0.33-4.589,0.33-6.791v-5.848
				c0-1.823-0.135-3.136-0.402-3.938c-0.267-0.802-0.813-1.521-1.639-2.158c-0.825-0.636-1.922-0.954-3.289-0.954
				c-0.864,0-1.635,0.125-2.311,0.374c-0.676,0.25-1.296,0.626-1.863,1.129c-0.566,0.504-1.046,1.045-1.439,1.627
				c-0.188,0.283-0.314,0.626-0.377,1.027c-0.062,0.4-0.094,1.207-0.094,2.417v2.759c0.065,4.073,0.104,6.276,0.117,6.606
				c0.033,0.786,0.128,1.359,0.286,1.722c0.062,0.157,0.157,0.287,0.284,0.389c0.126,0.103,0.317,0.177,0.569,0.225
				c0.111,0.016,0.989,0.04,2.635,0.07v1.344c-2.798-0.11-4.733-0.165-5.801-0.165C291.258,136.553,289.238,136.608,286.126,136.718
				z"/>
			<path fill="#575756" d="M314.398,117.312v-1.344c3.05-0.346,5.611-1.007,7.687-1.981l0.52,0.378
				c-0.127,3.348-0.188,5.911-0.188,7.687v4.292c0.076,4.087,0.125,6.296,0.141,6.625c0.016,0.787,0.102,1.36,0.26,1.722
				c0.077,0.142,0.181,0.263,0.306,0.366c0.127,0.103,0.314,0.185,0.566,0.248c0.093,0.016,0.967,0.04,2.617,0.07v1.344
				c-2.39-0.11-4.299-0.165-5.729-0.165c-1.258,0-3.318,0.055-6.179,0.165v-1.344l2.254-0.023c0.331-0.015,0.589-0.074,0.771-0.177
				c0.184-0.103,0.321-0.232,0.417-0.39c0.172-0.313,0.283-0.873,0.332-1.674c0-0.204,0.039-2.46,0.117-6.768v-4.15
				c0-2.343-0.078-3.734-0.234-4.174c-0.096-0.235-0.266-0.412-0.509-0.53C317.302,117.371,316.252,117.312,314.398,117.312z
				 M320.152,103.518c0.739,0,1.363,0.259,1.874,0.778c0.512,0.52,0.768,1.147,0.768,1.887c0,0.723-0.26,1.344-0.778,1.863
				c-0.52,0.519-1.14,0.778-1.863,0.778c-0.739,0-1.368-0.26-1.887-0.778c-0.52-0.519-0.778-1.14-0.778-1.863
				c0-0.739,0.259-1.367,0.778-1.887C318.784,103.777,319.413,103.518,320.152,103.518z"/>
			<path fill="#575756" d="M327.384,136.718v-1.344l2.256-0.023c0.331-0.015,0.589-0.074,0.771-0.177
				c0.181-0.103,0.319-0.232,0.415-0.39c0.174-0.313,0.285-0.873,0.332-1.674c0-0.204,0.041-2.46,0.119-6.768v-2.806
				c0-1.257-0.023-2.61-0.07-4.055c-0.049-0.928-0.123-1.478-0.225-1.651c-0.104-0.173-0.281-0.303-0.53-0.389
				c-0.252-0.086-1.274-0.122-3.067-0.106v-1.344c3.177-0.439,5.496-1.014,6.957-1.721c0.314-0.158,0.526-0.236,0.638-0.236
				c0.109,0,0.195,0.039,0.258,0.118c0.062,0.079,0.096,0.197,0.096,0.353c0,0.11-0.008,0.236-0.023,0.377
				c-0.049,0.566-0.096,1.761-0.143,3.584l4.386-3.75c1.289-0.471,2.507-0.708,3.656-0.708c1.273,0,2.479,0.26,3.618,0.779
				c1.14,0.519,1.996,1.171,2.571,1.957c0.572,0.786,0.954,1.776,1.144,2.971c0.109,0.708,0.164,2.681,0.164,5.919v4.173
				c0,2.044,0.055,3.435,0.166,4.174c0.078,0.472,0.201,0.797,0.364,0.978c0.166,0.181,0.422,0.295,0.767,0.343l2.522,0.07v1.344
				c-1.539-0.11-2.82-0.165-3.843-0.165c-0.88,0-2.341,0.055-4.386,0.165c0.221-3.882,0.33-6.334,0.33-7.357V125.4
				c0-2.468-0.094-4.087-0.281-4.857c-0.27-1.053-0.874-1.902-1.816-2.548c-0.944-0.644-2.083-0.966-3.42-0.966
				c-1.178,0-2.255,0.278-3.23,0.836s-1.67,1.202-2.086,1.933c-0.417,0.73-0.626,1.961-0.626,3.69v2.854
				c0.078,4.088,0.117,6.296,0.117,6.626c0.033,0.786,0.127,1.36,0.287,1.722c0.062,0.142,0.155,0.263,0.282,0.366
				s0.326,0.185,0.594,0.248c0.095,0.016,0.966,0.04,2.61,0.07v1.344c-1.918-0.11-3.654-0.165-5.211-0.165
				C332.524,136.553,330.371,136.608,327.384,136.718z"/>
			<path fill="#575756" d="M378.782,115.874l0.188,0.448c-0.612,0.929-1.013,1.564-1.202,1.91h-4.386
				c0.361,0.925,0.543,1.796,0.543,2.612c0,1.192-0.311,2.357-0.931,3.494c-0.622,1.138-1.531,2.11-2.726,2.917
				s-2.468,1.354-3.819,1.636c-0.88,0.188-2.068,0.266-3.561,0.235c-1.022,0.813-1.666,1.423-1.934,1.83
				c-0.174,0.281-0.26,0.586-0.26,0.915c0,0.375,0.115,0.707,0.342,0.997c0.229,0.289,0.579,0.492,1.05,0.607
				c0.708,0.197,1.964,0.296,3.772,0.296l5.094-0.117c1.775,0,3.124,0.232,4.045,0.697c0.918,0.464,1.598,1.172,2.038,2.125
				c0.441,0.953,0.661,2.027,0.661,3.224c0,1.622-0.53,3.27-1.592,4.947c-1.062,1.676-2.638,2.999-4.727,3.967
				c-2.092,0.968-4.435,1.453-7.027,1.453c-2.171,0-4.017-0.338-5.543-1.014c-1.523-0.675-2.652-1.58-3.383-2.711
				c-0.731-1.132-1.096-2.319-1.096-3.561c0-0.691,0.105-1.34,0.317-1.945c0.211-0.605,0.57-1.253,1.071-1.945
				c1.92-0.881,3.293-1.651,4.128-2.311c-1.305-0.424-2.142-0.825-2.511-1.203c-0.37-0.377-0.556-0.755-0.556-1.132
				c0-0.314,0.236-1.164,0.708-2.546c0.771-0.644,1.98-1.556,3.631-2.736c-1.415-0.393-2.503-0.851-3.264-1.376
				c-0.764-0.526-1.356-1.241-1.781-2.143c-0.424-0.903-0.637-1.896-0.637-2.979c0-1.602,0.408-3.033,1.226-4.296
				c0.817-1.264,2.192-2.292,4.128-3.084c1.932-0.793,3.725-1.189,5.375-1.189c1.069,0,2.087,0.173,3.053,0.519
				c0.968,0.346,1.883,0.865,2.749,1.557C374.922,115.952,377.194,115.921,378.782,115.874z M366.402,136.979
				c-2.344,0-3.812,0.031-4.409,0.094c-0.299,0.047-0.638,0.204-1.015,0.471c-1.241,0.88-1.902,1.367-1.98,1.462
				c-0.158,0.158-0.329,0.48-0.519,0.967c-0.33,0.88-0.496,1.769-0.496,2.664c0,1.651,0.641,3.045,1.922,4.186
				c1.282,1.14,3.046,1.709,5.295,1.709c1.664,0,3.186-0.333,4.562-1.001c1.377-0.668,2.413-1.581,3.113-2.735
				c0.698-1.156,1.05-2.315,1.05-3.478c-0.047-1.007-0.201-1.769-0.461-2.289c-0.259-0.518-0.573-0.927-0.942-1.225
				c-0.37-0.299-0.878-0.543-1.521-0.731C370.622,137.025,369.09,136.993,366.402,136.979z M359.494,121.168
				c0,1.113,0.206,2.197,0.624,3.247c0.415,1.053,1.03,1.844,1.84,2.377c0.808,0.534,1.732,0.8,2.771,0.8
				c1.352,0,2.546-0.435,3.583-1.306c1.038-0.871,1.558-2.271,1.558-4.201c0-1.977-0.52-3.55-1.558-4.718
				c-1.037-1.169-2.286-1.754-3.749-1.754c-1.523,0-2.751,0.482-3.678,1.447C359.956,118.027,359.494,119.395,359.494,121.168z"/>
			<path fill="#00ADC6" d="M387.358,131.931c0.739,0,1.364,0.26,1.875,0.778c0.511,0.519,0.767,1.147,0.767,1.886
				c0,0.723-0.26,1.344-0.778,1.863c-0.519,0.519-1.14,0.778-1.863,0.778c-0.737,0-1.367-0.259-1.887-0.778
				c-0.519-0.52-0.778-1.14-0.778-1.863c0-0.739,0.26-1.367,0.778-1.886C385.991,132.191,386.621,131.931,387.358,131.931z"/>
		</g>
	</g>
</g>
</svg>
